<svg width="32" height="8" viewBox="0 0 32 8" fill="none" xmlns="http://www.w3.org/2000/svg">
<path d="M16.0004 9.88416e-08C15.4978 8.82533e-08 15.0001 0.0989646 14.5357 0.291243C14.0713 0.483522 13.6494 0.76535 13.294 1.12064C12.9386 1.47592 12.6566 1.8977 12.4643 2.36191C12.2719 2.82611 12.1729 3.32364 12.1729 3.82609C12.1729 4.32854 12.2719 4.82607 12.4643 5.29027C12.6566 5.75447 12.9386 6.17625 13.294 6.53154C13.6494 6.88682 14.0713 7.16865 14.5357 7.36093C15.0001 7.55321 15.4978 7.65217 16.0004 7.65217C17.0156 7.65194 17.989 7.24862 18.7066 6.53093C19.4243 5.81323 19.8273 4.83996 19.8271 3.82522C19.8268 2.81048 19.4234 1.83739 18.7054 1.12002C17.9874 0.402653 17.0138 -0.000230389 15.9987 9.88416e-08H16.0004ZM3.82751 9.88416e-08C3.32488 8.82533e-08 2.82716 0.0989646 2.36279 0.291243C1.89841 0.483522 1.47647 0.76535 1.12105 1.12064C0.765635 1.47592 0.483703 1.8977 0.291352 2.36191C0.0990016 2.82611 0 3.32364 0 3.82609C0 4.32854 0.0990016 4.82607 0.291352 5.29027C0.483703 5.75447 0.765635 6.17625 1.12105 6.53154C1.47647 6.88682 1.89841 7.16865 2.36279 7.36093C2.82716 7.55321 3.32488 7.65217 3.82751 7.65217C4.84263 7.65194 5.81609 7.24862 6.53372 6.53093C7.25136 5.81323 7.65439 4.83996 7.65416 3.82522C7.65393 2.81048 7.25045 1.83739 6.53249 1.12002C5.81453 0.402653 4.84263 -0.000230389 3.82751 9.88416e-08ZM28.1734 9.88416e-08C27.6707 8.82533e-08 27.173 0.0989646 26.7086 0.291243C26.2443 0.483522 25.8223 0.76535 25.4669 1.12064C25.1115 1.47592 24.8295 1.8977 24.6372 2.36191C24.4448 2.82611 24.3458 3.32364 24.3458 3.82609C24.3458 4.32854 24.4448 4.82607 24.6372 5.29027C24.8295 5.75447 25.1115 6.17625 25.4669 6.53154C25.8223 6.88682 26.2443 7.16865 26.7086 7.36093C27.173 7.55321 27.6707 7.65217 28.1734 7.65217C29.1885 7.65194 30.1619 7.24862 30.8796 6.53093C31.5972 5.81323 32.0002 4.83996 32 3.82522C31.9998 2.81048 31.5963 1.83739 30.8783 1.12002C30.1604 0.402653 29.1885 -0.000230389 28.1734 9.88416e-08Z" fill="black"/>
</svg>
